<svg xmlns="http://www.w3.org/2000/svg" width="256" height="256" xml:space="preserve"><g style="stroke:none;stroke-width:0;stroke-dasharray:none;stroke-linecap:butt;stroke-linejoin:miter;stroke-miterlimit:10;fill:none;fill-rule:nonzero;opacity:1" transform="matrix(2.81 0 0 2.81 1.407 1.407)"><rect x="23.24" y="37.45" rx="0" ry="0" width="9.33" height="30" style="stroke:none;stroke-width:1;stroke-dasharray:none;stroke-linecap:butt;stroke-linejoin:miter;stroke-miterlimit:10;fill:#000;fill-rule:nonzero;opacity:1"/><path d="M27.904 33.356A5.404 5.404 0 0 1 22.5 27.95a5.407 5.407 0 0 1 5.405-5.41 5.41 5.41 0 0 1 5.405 5.41 5.411 5.411 0 0 1-5.406 5.406zM67.5 67.46h-9.321V52.869c0-3.48-.06-7.956-4.847-7.956-4.853 0-5.594 3.793-5.594 7.706V67.46h-9.321V37.455h8.945v4.103h.127c1.245-2.36 4.288-4.847 8.824-4.847 9.444 0 11.187 6.213 11.187 14.292V67.46z" style="stroke:none;stroke-width:1;stroke-dasharray:none;stroke-linecap:butt;stroke-linejoin:miter;stroke-miterlimit:10;fill:#000;fill-rule:nonzero;opacity:1"/><path d="M45 90C20.187 90 0 69.813 0 45S20.187 0 45 0s45 20.187 45 45-20.187 45-45 45zm0-84C23.495 6 6 23.495 6 45s17.495 39 39 39 39-17.495 39-39S66.505 6 45 6z" style="stroke:none;stroke-width:1;stroke-dasharray:none;stroke-linecap:butt;stroke-linejoin:miter;stroke-miterlimit:10;fill:#000;fill-rule:nonzero;opacity:1"/></g></svg>