<svg fill="#fff" xmlns="http://www.w3.org/2000/svg" width="800" height="800" viewBox="0 0 65.403 65.402" xml:space="preserve"><path d="M32.702 0C14.646 0 0 14.646 0 32.701c0 18.062 14.646 32.701 32.702 32.701 18.057 0 32.701-14.64 32.701-32.701C65.403 14.646 50.758 0 32.702 0zM15.328 48.29a1.78 1.78 0 0 1-1.785-1.779c0-.652.367-1.195.896-1.505V28.707h1.779v16.299c.524.31.891.851.891 1.508a1.78 1.78 0 0 1-1.781 1.776zm32.643-6.414c0 2.107-6.839 5.342-15.27 5.342-8.43 0-15.27-3.234-15.27-5.342V31.351l15.27 5.452 15.27-5.452v10.525zm-15.269-6.962-15.613-5.576 14.184-2.184c.341.428.836.715 1.422.715a1.856 1.856 0 0 0 1.856-1.86 1.85 1.85 0 0 0-1.856-1.857c-.809 0-1.476.528-1.731 1.246l-17.396 2.677-5.791-2.068 24.921-8.901 24.92 8.901-24.916 8.907z"/></svg>