<svg xmlns="http://www.w3.org/2000/svg" viewBox="0 0 256 256" xml:space="preserve"><g fill="#fff"><path d="M120.5 10c-18.3 1.6-32.6 5.6-47.4 13.3-21.5 11.3-39.8 29.9-50.7 51.6C13.9 91.8 10 108.7 10 128.2c0 14.3 1.7 24.4 6.2 37.8 14.3 42.4 51.3 72.9 96.2 79.1 36.6 5 74.2-8 100.3-34.9C250 171.6 256.7 113 229 67c-9.3-15.5-24.1-30.3-39.5-39.9-13.9-8.5-29.3-13.9-45.9-16.3-5.2-.6-19-1.1-23.1-.8zm22.6 36.2c33.6 6.2 59.7 32.3 66.6 66.5.9 4.4 1.1 6.7 1.1 14.7 0 5.9-.2 10.8-.6 12.9-3.1 17.6-10.7 32.8-22.3 45-5.4 5.7-10.3 9.6-16.9 13.7-26.8 16.3-62.1 15.8-88-1.3-7.7-5-12.7-9.6-18.6-16.5-18.5-22-24.3-52-15.3-79.3.8-2.4 2.7-7 4.3-10.3C65.7 66 89.9 48.8 118.5 45.4c5.8-.7 18.5-.3 24.6.8z"/><path d="M116.3 52C101 54.4 87 61.2 75.5 71.8l-3.6 3.4 6 3C83.3 81 94 85.5 95 85.5c.2 0 .9-1 1.6-2.2 3.8-7.2 12.7-19.2 19.6-26.5 4.2-4.4 5.1-5.5 4.6-5.5-.3.1-2.3.4-4.5.7zm19.9 1c7.2 6 17.1 17.2 23.2 26.6 1.8 2.8 3.5 5 3.6 5 .6 0 10.1-4.1 15.7-6.8l5.3-2.6-3.6-3.3c-10-9.3-23.8-16.4-36.8-19.1-2.4-.5-5.4-1-6.8-1.2l-2.5-.3 1.9 1.7zm-15.4 8.1c-4.7 5.1-10.2 11.9-13.5 16.9-2.7 4-5.6 8.9-5.6 9.4 0 .3 6.5 1.8 11.3 2.7 1.5.3 4.8.6 7.2.8l4.5.3V74.3c0-9.3-.1-16.9-.2-16.9-.1-.1-1.8 1.6-3.7 3.7zm10.4 13.1V91h1.2c4.4 0 18.3-2.4 22.6-3.8l1.7-.6-3-4.6c-1.7-2.5-4.7-6.6-6.6-9-3.6-4.6-13.1-14.3-14.8-15.2l-1-.6-.1 17zM67.1 81c-1.8 2-6.2 9.2-8.4 13.8-3.9 8.2-6.5 17.6-7.2 26.1l-.3 3.8h33.2l.6-5.4c.9-8.5 3-17 6.4-25.4l1-2.4-1.1-.4c-7.9-3.1-15.1-6.4-20-9.1L68 80l-.9 1zM181 83.5c-3.7 1.8-8.5 4.1-10.9 5-2.3.9-4.2 1.7-4.3 1.8-.1.1.2.8.6 1.6 3.9 7.4 7.2 19.5 7.9 28.8l.3 4.1h30l-.3-3.5c-.7-8.5-3.7-18.9-7.7-27.2-2.2-4.6-7.2-12.6-8.4-13.4-.3-.4-2.6.5-7.2 2.8zm-24.7 9.9c-5.2 1.7-19.9 4.1-24.5 4.1-.6 0-.6 2.3-.6 13.6v13.6h37.1l-.3-3.9c-.5-5.4-1.5-10.7-3.3-16.2-1.6-4.9-4.8-12.3-5.3-12.2-.2.1-1.6.5-3.1 1zm-59.2 3.3c-3.1 7.5-5.4 16.7-5.9 24.1l-.3 4h33.8V97.6l-4.2-.3c-6.7-.5-15.1-2-21.2-3.8-.6-.2-1.2.6-2.2 3.2zM51.5 135c.7 8.5 3.3 17.8 7.2 26.2 2.4 4.9 7.9 13.8 8.9 14.1.3.1 3.8-1.4 7.7-3.4 3.9-2 9.5-4.5 12.3-5.6 2.9-1.2 5.1-2.2 5-2.5-3.7-8.6-6.3-17.7-7.4-26.4-.4-3-.7-5.5-.7-5.8 0-.2-6.5-.4-16.7-.4H51.1l.4 3.8zm39.7-.5c.7 7.4 2.7 15.1 5.9 23.3l1.8 4.7 2.4-.6c5-1.3 11.5-2.5 17.4-3l6-.6v-27H90.8l.4 3.2zm40 10.3v13.5l4.1.3c5.4.5 13.6 1.9 19.2 3.3 2.5.7 4.7 1 4.9.8.7-.8 3.7-7.9 5-12 1.7-5 3.1-11.7 3.6-16.3l.3-3.3h-37.1v13.7zm43.1-10.5c-.9 8.6-3.3 17.7-7.2 26.5-1 2.3-1.7 4.4-1.5 4.5.2.2 1.8.9 3.6 1.6 1.8.7 6.7 3 11 5l7.8 3.7.9-1.1c8.5-11 14.5-26.2 15.5-39.4l.3-4h-30.1l-.3 3.2zm-58.4 30.9c-3.1.4-13.2 2.5-13.6 2.9-.5.5 3.4 7.1 7.3 12.7 3.2 4.5 8.5 10.9 12.2 15l2.8 3v-33.9l-3.6.1c-1.8 0-4.2.1-5.1.2zm15.3 16.9v17.2l2.8-2.7c8.2-8 21.7-25 21.7-27.3 0-1-17.4-4.2-22.7-4.3h-1.8v17.1zm-42.3-9.4c-3.6 1.5-8.8 3.9-11.7 5.4l-5.3 2.8 3.6 3.4c12 11.1 26.6 17.8 43.8 20.2l2.3.3-3.7-3.9c-7.1-7.4-15.3-18.3-20.3-27.1-1.2-2.1-2.2-3.8-2.2-3.8s-2.9 1.2-6.5 2.7zm71.5 1.1c-4.8 7.9-11.7 16.4-20 24.9l-5.8 5.9 2.3-.3c10.5-1.3 21.8-5.3 31.1-10.9 6.1-3.8 15.9-12 15.1-12.8-.6-.6-10.9-5.7-14-7-1.3-.5-3.4-1.3-4.6-1.8l-2.3-.9-1.8 2.9z"/></g></svg>