<svg xmlns="http://www.w3.org/2000/svg" width="256" height="256" xml:space="preserve"><g style="stroke:none;stroke-width:0;stroke-dasharray:none;stroke-linecap:butt;stroke-linejoin:miter;stroke-miterlimit:10;fill:none;fill-rule:nonzero;opacity:1"><path d="M45 0C20.147 0 0 20.147 0 45s20.147 45 45 45 45-20.147 45-45S69.853 0 45 0zM31.789 64.872a1.44 1.44 0 0 1-1.44 1.44H20.142V36.225h10.207c.795 0 1.44.645 1.44 1.44v27.207zm38.069-17.379a3.764 3.764 0 0 1-3.764 3.764h-1.118a3.764 3.764 0 1 1 0 7.528h-1.678a3.764 3.764 0 1 1 0 7.528H51.263v-.006h-1.752c-3.623.091-7.403-.779-9.648-2.265-.899-.595-1.929-.963-3.008-.963h-2.003V39.322h3.862c4.958-.287 9.834-10.194 10.7-18.164.105-.962 1.03-1.675 1.963-1.417 4.927 1.364 4.864 12.721 2.788 16.46h11.93a3.764 3.764 0 1 1 0 7.528 3.764 3.764 0 0 1 3.763 3.764z" style="stroke:none;stroke-width:1;stroke-dasharray:none;stroke-linecap:butt;stroke-linejoin:miter;stroke-miterlimit:10;fill:#000;fill-rule:nonzero;opacity:1" transform="matrix(2.81 0 0 2.81 1.407 1.407)"/></g></svg>