<svg xmlns="http://www.w3.org/2000/svg" width="64" height="64"><path d="M38.572 3.002c-3.354-.092-6.729.753-9.681 2.627a1 1 0 0 0-.004.002l-13.04 8.346-.005.003-.002.002c-3.794 2.381-6.424 6.275-7.184 10.684-.617 3.473-.069 7.018 1.479 10.176-1.06 1.706-1.815 3.563-2.143 5.527l-.002.006a16.96 16.96 0 0 0 2.871 12.79l.004.005.002.002c5.521 7.871 16.35 10.192 24.219 5.197l13.043-8.299a15.815 15.815 0 0 0 7.191-10.69c.618-3.472.07-7.017-1.478-10.175 1.058-1.705 1.812-3.563 2.14-5.525a16.636 16.636 0 0 0-2.877-12.856c-3.422-4.918-8.948-7.67-14.533-7.822zm-16.826.027a1.038 1.038 0 0 0-.375.149c-.47.304-.607.926-.307 1.39l1.088 1.678c.3.464.924.595 1.393.291.47-.304.607-.927.307-1.39l-1.086-1.678a1 1 0 0 0-1.02-.44zM38.53 5.01c4.966.143 9.9 2.586 12.944 6.97a1 1 0 0 0 .013.017 14.627 14.627 0 0 1 2.53 11.324 1 1 0 0 0-.004.022 13.31 13.31 0 0 1-2.075 5.209 1 1 0 0 0-.048 1.03c1.55 2.877 2.04 6.202 1.46 9.454a1 1 0 0 0 0 .006c-.661 3.844-2.964 7.254-6.283 9.334a1 1 0 0 0-.005.004l-13.047 8.303c-6.93 4.399-16.595 2.356-21.514-4.664a1 1 0 0 0-.004-.006 14.973 14.973 0 0 1-2.535-11.295 1 1 0 0 0 .002-.012 13.314 13.314 0 0 1 2.076-5.209 1 1 0 0 0 .049-1.03c-1.55-2.878-2.042-6.204-1.463-9.456a1 1 0 0 0 .002-.006c.662-3.844 2.963-7.253 6.281-9.332a1 1 0 0 0 .01-.006l13.043-8.35.004-.002c2.597-1.647 5.587-2.39 8.564-2.304zm-21.033.77a1.038 1.038 0 0 0-.375.149c-.47.304-.607.926-.307 1.39l1.088 1.678c.3.464.924.595 1.393.291.47-.304.607-.927.307-1.39L18.517 6.22a1 1 0 0 0-1.02-.44zm-4.25 2.75a1.038 1.038 0 0 0-.375.149c-.47.304-.607.926-.307 1.39l1.088 1.678c.3.464.924.595 1.393.291.47-.304.607-.927.307-1.39L14.267 8.97a1 1 0 0 0-1.02-.44zm25.195.416a11.48 11.48 0 0 0-2.629.366 1 1 0 0 0-.037.01c-1.021.306-2.018.722-2.93 1.31l-.001.002c-.002 0-.004 0-.006.002l-13.143 8.363c-2.397 1.492-4.087 3.972-4.57 6.75-.527 2.852.16 5.753 1.79 8.068l.001.002.002.004a11.436 11.436 0 0 0 12.26 4.555h.004a9.887 9.887 0 0 0 2.968-1.273l5.002-3.192c.094-.057.308-.138.563-.224.899-.227 1.78.088 2.308.845.278.4.409.967.319 1.447-.095.505-.337.863-.803 1.163L26.453 45.5a3.725 3.725 0 0 1-.562.225c-.874.22-1.765-.127-2.301-.89a2.272 2.272 0 0 1-.36-1.323v-.002l.045-.451a1 1 0 0 0-.707-1.057l-.478-.145a16.438 16.438 0 0 1-4.867-2.435 1 1 0 0 0-.008-.004l-.67-.479a1 1 0 0 0-1.535.516l-.24.766a1 1 0 0 0-.022.08c-.093.417-.186.799-.285 1.244a1 1 0 0 0-.012.053c-.472 2.831.16 5.736 1.85 8.064a11.438 11.438 0 0 0 12.26 4.553 1 1 0 0 0 .037-.012c1.024-.307 2.022-.724 2.935-1.314l-.006.006 13.15-8.372c2.4-1.492 4.091-3.975 4.573-6.755a1 1 0 0 0 .002-.006c.471-2.831-.16-5.737-1.85-8.065a11.438 11.438 0 0 0-12.26-4.552 1 1 0 0 0-.037.01c-1.022.306-2.018.723-2.93 1.312l-5.007 3.193a3.77 3.77 0 0 1-.559.223c-.899.226-1.78-.089-2.308-.846a2.023 2.023 0 0 1-.319-1.45c.095-.504.335-.86.801-1.16L37.87 18.07l.006-.002a3.77 3.77 0 0 1 .559-.222c.895-.226 1.771.088 2.3.84.251.38.39.898.36 1.324v.002l-.045.45a1 1 0 0 0 .707 1.06l.473.14h.001l.004.002a16.438 16.438 0 0 1 4.868 2.436 1 1 0 0 0 .007.004l.67.48a1 1 0 0 0 1.535-.516l.233-.748.006-.017a13.1 13.1 0 0 0 .357-1.326 1 1 0 0 0 .01-.053c.472-2.831-.159-5.736-1.85-8.063a11.442 11.442 0 0 0-9.629-4.916zm.05 2a9.42 9.42 0 0 1 7.947 4.064 1 1 0 0 0 .013.02c1.365 1.874 1.88 4.223 1.496 6.551-.048.217-.109.409-.162.604-1.447-.986-3-1.766-4.668-2.311l-.03.283c.01-.116-.085-.214-.087-.33-.063-.02-.12-.054-.184-.074l.178.053c-.016-.785-.155-1.575-.596-2.237a1 1 0 0 0-.011-.017 4.168 4.168 0 0 0-4.471-1.64 1 1 0 0 0-.066.019c-.285.095-.637.201-1.012.427a1 1 0 0 0-.022.014l-13.11 8.373a1 1 0 0 0-.005.002 3.778 3.778 0 0 0-1.685 2.475 3.93 3.93 0 0 0 .64 2.955 1 1 0 0 0 0 .002 4.168 4.168 0 0 0 4.471 1.64 1 1 0 0 0 .066-.02c.285-.095.636-.2 1.012-.427a1 1 0 0 0 .022-.014l5.023-3.205a1 1 0 0 0 .006-.004c.706-.457 1.52-.802 2.4-1.068a9.417 9.417 0 0 1 10.112 3.766 1 1 0 0 0 .013.017c1.366 1.879 1.884 4.232 1.498 6.563-.38 2.195-1.75 4.211-3.658 5.398a1 1 0 0 0-.008.006l-13.16 8.377a1 1 0 0 0-.006.004c-.706.457-1.52.802-2.4 1.068a9.417 9.417 0 0 1-10.111-3.765 1 1 0 0 0-.014-.02c-1.366-1.878-1.884-4.229-1.498-6.558.044-.195.09-.393.135-.584a18.441 18.441 0 0 0 4.648 2.298l.03-.283c-.009.116.085.214.087.33.064.02.12.055.184.074l-.178-.052c.016.784.156 1.573.596 2.234a1 1 0 0 0 .012.018c.992 1.427 2.77 2.13 4.47 1.69a1 1 0 0 0 .067-.02c.285-.096.636-.202 1.011-.428a1 1 0 0 0 .022-.014l13.111-8.373a1 1 0 0 0 .002-.002 3.78 3.78 0 0 0 1.688-2.474 3.93 3.93 0 0 0-.641-2.955 1 1 0 0 0-.002-.002 4.166 4.166 0 0 0-4.469-1.641 1 1 0 0 0-.066.02c-.285.095-.636.2-1.012.427a1 1 0 0 0-.021.014l-5.024 3.205a1 1 0 0 0-.006.004 7.906 7.906 0 0 1-2.379 1.017 1 1 0 0 0-.007.002 9.419 9.419 0 0 1-10.125-3.765 1 1 0 0 0-.004-.006c-1.333-1.892-1.89-4.251-1.461-6.563a1 1 0 0 0 .002-.011c.38-2.196 1.75-4.212 3.658-5.399a1 1 0 0 0 .008-.006l13.158-8.373a1 1 0 0 0 .008-.004c.708-.458 1.524-.804 2.406-1.07a9.54 9.54 0 0 1 2.158-.299zm-29.495.334a1.038 1.038 0 0 0-.375.149c-.47.304-.607.926-.307 1.39l1.088 1.678c.3.464.924.595 1.393.291.47-.304.607-.927.307-1.39l-1.086-1.678a1 1 0 0 0-1.02-.44zm44.594 37.8a.986.986 0 0 0-.373.148c-.47.304-.609.926-.309 1.39l1.088 1.68c.3.464.924.593 1.393.289s.605-.927.306-1.39l-1.086-1.678a1 1 0 0 0-1.02-.44zm-4.25 2.75a.986.986 0 0 0-.373.148c-.47.304-.609.926-.309 1.39l1.088 1.68c.3.464.924.593 1.393.289s.605-.927.306-1.39l-1.086-1.678a1 1 0 0 0-1.02-.44zm-4.25 2.75a.986.986 0 0 0-.373.148c-.47.304-.609.926-.309 1.39l1.088 1.68c.3.464.924.593 1.393.289s.605-.927.306-1.39l-1.086-1.678a1 1 0 0 0-1.02-.44zm-4.25 2.75a.986.986 0 0 0-.373.148c-.47.304-.609.926-.309 1.39l1.088 1.68c.3.464.924.593 1.393.289s.605-.927.306-1.39l-1.086-1.678a1 1 0 0 0-1.02-.44z"/></svg>