<svg xmlns="http://www.w3.org/2000/svg" width="256" height="256" xml:space="preserve"><g style="stroke:none;stroke-width:0;stroke-dasharray:none;stroke-linecap:butt;stroke-linejoin:miter;stroke-miterlimit:10;fill:none;fill-rule:nonzero;opacity:1"><path d="M45 0C20.187 0 0 20.187 0 45s20.187 45 45 45 45-20.187 45-45S69.813 0 45 0zm7.706 67.583-.521 2.194a2.793 2.793 0 0 1-1.878 2.028 22.141 22.141 0 0 1-10.125.711 4.204 4.204 0 0 1-3.474-4.823l3.067-18.855a4.965 4.965 0 0 0-2.697-5.247 2.807 2.807 0 0 1-1.502-3.161l.521-2.194a2.796 2.796 0 0 1 1.878-2.029 22.141 22.141 0 0 1 10.125-.711 4.204 4.204 0 0 1 3.474 4.823l-3.067 18.855a4.965 4.965 0 0 0 2.697 5.247 2.81 2.81 0 0 1 1.502 3.162zM47.55 31.096a6.95 6.95 0 1 1 .001-13.901 6.95 6.95 0 0 1-.001 13.901z" style="stroke:none;stroke-width:1;stroke-dasharray:none;stroke-linecap:butt;stroke-linejoin:miter;stroke-miterlimit:10;fill:#000;fill-rule:nonzero;opacity:1" transform="matrix(2.81 0 0 2.81 1.407 1.407)"/></g></svg>