<svg xmlns="http://www.w3.org/2000/svg" width="256" height="256" xml:space="preserve"><g style="stroke:none;stroke-width:0;stroke-dasharray:none;stroke-linecap:butt;stroke-linejoin:miter;stroke-miterlimit:10;fill:none;fill-rule:nonzero;opacity:1"><path d="M45 90C20.147 90 0 69.853 0 45S20.147 0 45 0s45 20.147 45 45-20.147 45-45 45z" style="stroke:none;stroke-width:1;stroke-dasharray:none;stroke-linecap:butt;stroke-linejoin:miter;stroke-miterlimit:10;fill:#000;fill-rule:nonzero;opacity:1" transform="matrix(2.81 0 0 2.81 1.407 1.407)"/><path d="M74.045 51.238c-5.558-2.302-5.558-10.175 0-12.477a1.547 1.547 0 0 0 .837-2.02l-2.913-7.031a1.547 1.547 0 0 0-2.02-.837c-5.558 2.302-11.125-3.265-8.822-8.822a1.546 1.546 0 0 0-.837-2.02l-7.032-2.913a1.546 1.546 0 0 0-2.02.837c-2.302 5.558-10.175 5.558-12.477 0a1.547 1.547 0 0 0-2.02-.837l-7.032 2.913a1.547 1.547 0 0 0-.837 2.02c2.302 5.558-3.265 11.125-8.823 8.823a1.546 1.546 0 0 0-2.02.837l-2.913 7.031a1.546 1.546 0 0 0 .837 2.02c5.558 2.302 5.558 10.175 0 12.477a1.547 1.547 0 0 0-.837 2.02l2.913 7.031a1.547 1.547 0 0 0 2.02.837c5.558-2.302 11.125 3.265 8.822 8.823a1.546 1.546 0 0 0 .837 2.02l7.031 2.913a1.546 1.546 0 0 0 2.02-.837c2.302-5.558 10.175-5.558 12.477 0a1.547 1.547 0 0 0 2.02.837l7.031-2.913a1.547 1.547 0 0 0 .837-2.02c-2.302-5.558 3.265-11.125 8.823-8.822a1.546 1.546 0 0 0 2.02-.837l2.913-7.031a1.546 1.546 0 0 0-.835-2.022zM45 57.702c-7.015 0-12.701-5.687-12.701-12.701C32.299 37.986 37.986 32.3 45 32.3S57.701 37.986 57.701 45 52.015 57.702 45 57.702z" style="stroke:none;stroke-width:1;stroke-dasharray:none;stroke-linecap:butt;stroke-linejoin:miter;stroke-miterlimit:10;fill:#fff;fill-rule:nonzero;opacity:1" transform="matrix(2.81 0 0 2.81 1.407 1.407)"/></g></svg>