<svg width="800" height="800" viewBox="0 0 512 512" xml:space="preserve" xmlns="http://www.w3.org/2000/svg"><path d="M256 126.562c-20.193 0-36.562 16.37-36.562 36.562h73.125c-.001-20.192-16.37-36.562-36.563-36.562z"/><path d="M256 0C114.615 0 0 114.615 0 256s114.615 256 256 256 256-114.615 256-256S397.385 0 256 0zm156 365.438C412 385.63 395.63 402 375.438 402H136.562C116.37 402 100 385.63 100 365.438v-165.75c0-20.193 16.37-36.562 36.562-36.562h46.312C182.875 122.739 215.614 90 256 90s73.125 32.739 73.125 73.125h46.312c20.193 0 36.562 16.37 36.562 36.562v165.751z"/></svg>