<?xml version="1.0" encoding="utf-8"?>
<!-- Svg Vector Icons : http://www.onlinewebfonts.com/icon -->
<!DOCTYPE svg PUBLIC "-//W3C//DTD SVG 1.1//EN" "http://www.w3.org/Graphics/SVG/1.1/DTD/svg11.dtd">
<svg version="1.1" xmlns="http://www.w3.org/2000/svg" xmlns:xlink="http://www.w3.org/1999/xlink" x="0px" y="0px" viewBox="0 0 256 256" enable-background="new 0 0 256 256" xml:space="preserve">
<metadata> Svg Vector Icons : http://www.onlinewebfonts.com/icon </metadata>
<g><g><g><path fill="#ffffff" d="M120.5,10c-18.3,1.6-32.6,5.6-47.4,13.3C51.6,34.6,33.3,53.2,22.4,74.9C13.9,91.8,10,108.7,10,128.2c0,14.3,1.7,24.4,6.2,37.8c14.3,42.4,51.3,72.9,96.2,79.1c36.6,5,74.2-8,100.3-34.9C250,171.6,256.7,113,229,67c-9.3-15.5-24.1-30.3-39.5-39.9c-13.9-8.5-29.3-13.9-45.9-16.3C138.4,10.2,124.6,9.7,120.5,10z M143.1,46.2c33.6,6.2,59.7,32.3,66.6,66.5c0.9,4.4,1.1,6.7,1.1,14.7c0,5.9-0.2,10.8-0.6,12.9c-3.1,17.6-10.7,32.8-22.3,45c-5.4,5.7-10.3,9.6-16.9,13.7c-26.8,16.3-62.1,15.8-88-1.3c-7.7-5-12.7-9.6-18.6-16.5c-18.5-22-24.3-52-15.3-79.3c0.8-2.4,2.7-7,4.3-10.3C65.7,66,89.9,48.8,118.5,45.4C124.3,44.7,137,45.1,143.1,46.2z"/><path fill="#ffffff" d="M116.3,52C101,54.4,87,61.2,75.5,71.8l-3.6,3.4l6,3c5.4,2.8,16.1,7.3,17.1,7.3c0.2,0,0.9-1,1.6-2.2c3.8-7.2,12.7-19.2,19.6-26.5c4.2-4.4,5.1-5.5,4.6-5.5C120.5,51.4,118.5,51.7,116.3,52z"/><path fill="#ffffff" d="M136.2,53c7.2,6,17.1,17.2,23.2,26.6c1.8,2.8,3.5,5,3.6,5c0.6,0,10.1-4.1,15.7-6.8l5.3-2.6l-3.6-3.3c-10-9.3-23.8-16.4-36.8-19.1c-2.4-0.5-5.4-1-6.8-1.2l-2.5-0.3L136.2,53z"/><path fill="#ffffff" d="M120.8,61.1c-4.7,5.1-10.2,11.9-13.5,16.9c-2.7,4-5.6,8.9-5.6,9.4c0,0.3,6.5,1.8,11.3,2.7c1.5,0.3,4.8,0.6,7.2,0.8l4.5,0.3V74.3c0-9.3-0.1-16.9-0.2-16.9C124.4,57.3,122.7,59,120.8,61.1z"/><path fill="#ffffff" d="M131.2,74.2V91h1.2c4.4,0,18.3-2.4,22.6-3.8l1.7-0.6l-3-4.6c-1.7-2.5-4.7-6.6-6.6-9c-3.6-4.6-13.1-14.3-14.8-15.2l-1-0.6L131.2,74.2L131.2,74.2z"/><path fill="#ffffff" d="M67.1,81c-1.8,2-6.2,9.2-8.4,13.8c-3.9,8.2-6.5,17.6-7.2,26.1l-0.3,3.8h16.6h16.6l0.6-5.4c0.9-8.5,3-17,6.4-25.4l1-2.4l-1.1-0.4c-7.9-3.1-15.1-6.4-20-9.1L68,80L67.1,81z"/><path fill="#ffffff" d="M181,83.5c-3.7,1.8-8.5,4.1-10.9,5c-2.3,0.9-4.2,1.7-4.3,1.8c-0.1,0.1,0.2,0.8,0.6,1.6c3.9,7.4,7.2,19.5,7.9,28.8l0.3,4.1h15h15l-0.3-3.5c-0.7-8.5-3.7-18.9-7.7-27.2c-2.2-4.6-7.2-12.6-8.4-13.4C187.9,80.3,185.6,81.2,181,83.5z"/><path fill="#ffffff" d="M156.3,93.4c-5.2,1.7-19.9,4.1-24.5,4.1c-0.6,0-0.6,2.3-0.6,13.6v13.6h18.5h18.6l-0.3-3.9c-0.5-5.4-1.5-10.7-3.3-16.2c-1.6-4.9-4.8-12.3-5.3-12.2C159.2,92.5,157.8,92.9,156.3,93.4z"/><path fill="#ffffff" d="M97.1,96.7c-3.1,7.5-5.4,16.7-5.9,24.1l-0.3,4h16.9h16.9v-13.6V97.6l-4.2-0.3c-6.7-0.5-15.1-2-21.2-3.8C98.7,93.3,98.1,94.1,97.1,96.7z"/><path fill="#ffffff" d="M51.5,135c0.7,8.5,3.3,17.8,7.2,26.2c2.4,4.9,7.9,13.8,8.9,14.1c0.3,0.1,3.8-1.4,7.7-3.4c3.9-2,9.5-4.5,12.3-5.6c2.9-1.2,5.1-2.2,5-2.5c-3.7-8.6-6.3-17.7-7.4-26.4c-0.4-3-0.7-5.5-0.7-5.8c0-0.2-6.5-0.4-16.7-0.4H51.1L51.5,135z"/><path fill="#ffffff" d="M91.2,134.5c0.7,7.4,2.7,15.1,5.9,23.3l1.8,4.7l2.4-0.6c5-1.3,11.5-2.5,17.4-3l6-0.6v-13.5v-13.5h-16.9H90.8L91.2,134.5z"/><path fill="#ffffff" d="M131.2,144.8v13.5l4.1,0.3c5.4,0.5,13.6,1.9,19.2,3.3c2.5,0.7,4.7,1,4.9,0.8c0.7-0.8,3.7-7.9,5-12c1.7-5,3.1-11.7,3.6-16.3l0.3-3.3h-18.6h-18.5L131.2,144.8L131.2,144.8z"/><path fill="#ffffff" d="M174.3,134.3c-0.9,8.6-3.3,17.7-7.2,26.5c-1,2.3-1.7,4.4-1.5,4.5c0.2,0.2,1.8,0.9,3.6,1.6c1.8,0.7,6.7,3,11,5l7.8,3.7l0.9-1.1c8.5-11,14.5-26.2,15.5-39.4l0.3-4h-15.1h-15L174.3,134.3z"/><path fill="#ffffff" d="M115.9,165.2c-3.1,0.4-13.2,2.5-13.6,2.9c-0.5,0.5,3.4,7.1,7.3,12.7c3.2,4.5,8.5,10.9,12.2,15l2.8,3l0-17v-16.9l-3.6,0.1C119.2,165,116.8,165.1,115.9,165.2z"/><path fill="#ffffff" d="M131.2,182.1v17.2l2.8-2.7c8.2-8,21.7-25,21.7-27.3c0-1-17.4-4.2-22.7-4.3h-1.8L131.2,182.1L131.2,182.1z"/><path fill="#ffffff" d="M88.9,172.7c-3.6,1.5-8.8,3.9-11.7,5.4l-5.3,2.8l3.6,3.4c12,11.1,26.6,17.8,43.8,20.2l2.3,0.3l-3.7-3.9c-7.1-7.4-15.3-18.3-20.3-27.1c-1.2-2.1-2.2-3.8-2.2-3.8C95.4,170,92.5,171.2,88.9,172.7z"/><path fill="#ffffff" d="M160.4,173.8c-4.8,7.9-11.7,16.4-20,24.9l-5.8,5.9l2.3-0.3c10.5-1.3,21.8-5.3,31.1-10.9c6.1-3.8,15.9-12,15.1-12.8c-0.6-0.6-10.9-5.7-14-7c-1.3-0.5-3.4-1.3-4.6-1.8l-2.3-0.9L160.4,173.8z"/></g></g></g>
</svg>