<?xml version="1.0" ?>

<!-- Uploaded to: SVG Repo, www.svgrepo.com, Generator: SVG Repo Mixer Tools -->
<svg fill="#000000" width="800px" height="800px" viewBox="0 0 512 512" id="_x30_1" version="1.1" xml:space="preserve" xmlns="http://www.w3.org/2000/svg" xmlns:xlink="http://www.w3.org/1999/xlink">

<g>

<path d="M256,126.562c-20.193,0-36.562,16.37-36.562,36.562h73.125C292.562,142.932,276.193,126.562,256,126.562z"/>

<path d="M256,0C114.615,0,0,114.615,0,256s114.615,256,256,256s256-114.615,256-256S397.385,0,256,0z M412,365.438   C412,385.63,395.63,402,375.438,402H136.562C116.37,402,100,385.63,100,365.438v-165.75c0-20.193,16.37-36.562,36.562-36.562   h46.312C182.875,122.739,215.614,90,256,90l0,0c40.386,0,73.125,32.739,73.125,73.125h46.312c20.193,0,36.562,16.37,36.562,36.562   V365.438z"/>

</g>

</svg>