<svg xmlns="http://www.w3.org/2000/svg" xmlns:xlink="http://www.w3.org/1999/xlink" version="1.1" width="256" height="256" viewBox="0 0 256 256" xml:space="preserve">

<defs>
</defs>
<g style="stroke: none; stroke-width: 0; stroke-dasharray: none; stroke-linecap: butt; stroke-linejoin: miter; stroke-miterlimit: 10; fill: none; fill-rule: nonzero; opacity: 1;" transform="translate(1.4065934065934016 1.4065934065934016) scale(2.81 2.81)" >
	<path d="M 45 0 C 20.147 0 0 20.147 0 45 c 0 24.853 20.147 45 45 45 s 45 -20.147 45 -45 C 90 20.147 69.853 0 45 0 z M 31.789 64.872 c 0 0.795 -0.645 1.44 -1.44 1.44 H 20.142 V 36.225 h 10.207 c 0.795 0 1.44 0.645 1.44 1.44 V 64.872 z M 69.858 47.493 c 0 2.079 -1.685 3.764 -3.764 3.764 h -1.118 c 2.079 0 3.764 1.685 3.764 3.764 c 0 2.079 -1.685 3.764 -3.764 3.764 h -1.678 c 2.079 0 3.764 1.685 3.764 3.764 s -1.685 3.764 -3.764 3.764 H 51.263 v -0.006 h -1.752 c -3.623 0.091 -7.403 -0.779 -9.648 -2.265 c -0.899 -0.595 -1.929 -0.963 -3.008 -0.963 h -2.003 V 39.322 h 3.862 c 4.958 -0.287 9.834 -10.194 10.7 -18.164 c 0.105 -0.962 1.03 -1.675 1.963 -1.417 c 4.927 1.364 4.864 12.721 2.788 16.46 h 11.93 c 2.079 0 3.764 1.685 3.764 3.764 c 0 2.079 -1.685 3.764 -3.764 3.764 C 68.173 43.729 69.858 45.414 69.858 47.493 z" style="stroke: none; stroke-width: 1; stroke-dasharray: none; stroke-linecap: butt; stroke-linejoin: miter; stroke-miterlimit: 10; fill: rgb(0,0,0); fill-rule: nonzero; opacity: 1;" transform=" matrix(1 0 0 1 0 0) " stroke-linecap="round" />
</g>
</svg>