<svg xmlns="http://www.w3.org/2000/svg" xmlns:xlink="http://www.w3.org/1999/xlink" version="1.1" width="256" height="256" viewBox="0 0 256 256" xml:space="preserve">

<defs>
</defs>
<g style="stroke: none; stroke-width: 0; stroke-dasharray: none; stroke-linecap: butt; stroke-linejoin: miter; stroke-miterlimit: 10; fill: none; fill-rule: nonzero; opacity: 1;" transform="translate(1.4065934065934016 1.4065934065934016) scale(2.81 2.81)" >
	<path d="M 45 90 L 45 90 C 20.147 90 0 69.853 0 45 v 0 C 0 20.147 20.147 0 45 0 h 0 c 24.853 0 45 20.147 45 45 v 0 C 90 69.853 69.853 90 45 90 z" style="stroke: none; stroke-width: 1; stroke-dasharray: none; stroke-linecap: butt; stroke-linejoin: miter; stroke-miterlimit: 10; fill: rgb(0,0,0); fill-rule: nonzero; opacity: 1;" transform=" matrix(1 0 0 1 0 0) " stroke-linecap="round" />
	<path d="M 74.045 51.238 L 74.045 51.238 c -5.558 -2.302 -5.558 -10.175 0 -12.477 l 0 0 c 0.789 -0.327 1.163 -1.231 0.837 -2.02 l -2.913 -7.031 c -0.327 -0.789 -1.231 -1.163 -2.02 -0.837 l 0 0 c -5.558 2.302 -11.125 -3.265 -8.822 -8.822 l 0 0 c 0.327 -0.789 -0.048 -1.693 -0.837 -2.02 l -7.032 -2.913 c -0.789 -0.327 -1.693 0.048 -2.02 0.837 c -2.302 5.558 -10.175 5.558 -12.477 0 c -0.327 -0.789 -1.231 -1.163 -2.02 -0.837 l -7.032 2.913 c -0.789 0.327 -1.163 1.231 -0.837 2.02 c 2.302 5.558 -3.265 11.125 -8.823 8.823 c -0.789 -0.327 -1.693 0.048 -2.02 0.837 l -2.913 7.031 c -0.327 0.789 0.048 1.693 0.837 2.02 l 0 0 c 5.558 2.302 5.558 10.175 0 12.477 l 0 0 c -0.789 0.327 -1.163 1.231 -0.837 2.02 l 2.913 7.031 c 0.327 0.789 1.231 1.163 2.02 0.837 l 0 0 c 5.558 -2.302 11.125 3.265 8.822 8.823 l 0 0 c -0.327 0.789 0.048 1.693 0.837 2.02 l 7.031 2.913 c 0.789 0.327 1.693 -0.048 2.02 -0.837 l 0 0 c 2.302 -5.558 10.175 -5.558 12.477 0 l 0 0 c 0.327 0.789 1.231 1.163 2.02 0.837 l 7.031 -2.913 c 0.789 -0.327 1.163 -1.231 0.837 -2.02 l 0 0 c -2.302 -5.558 3.265 -11.125 8.823 -8.822 c 0.789 0.327 1.693 -0.048 2.02 -0.837 l 2.913 -7.031 C 75.209 52.47 74.834 51.566 74.045 51.238 z M 45 57.702 c -7.015 0 -12.701 -5.687 -12.701 -12.701 c 0 -7.015 5.687 -12.701 12.701 -12.701 S 57.701 37.986 57.701 45 S 52.015 57.702 45 57.702 z" style="stroke: none; stroke-width: 1; stroke-dasharray: none; stroke-linecap: butt; stroke-linejoin: miter; stroke-miterlimit: 10; fill: rgb(255,255,255); fill-rule: nonzero; opacity: 1;" transform=" matrix(1 0 0 1 0 0) " stroke-linecap="round" />
</g>
</svg>